<svg width="153" height="25" viewBox="0 0 153 25" fill="none" xmlns="http://www.w3.org/2000/svg">
<path d="M11.2876 8.71316C11.2712 9.41608 11.2574 10.0476 11.2465 10.6078C11.2355 11.1624 11.2245 11.6594 11.2135 12.0987C11.208 12.5381 11.2025 12.9225 11.197 13.252C11.1915 13.576 11.1888 13.8561 11.1888 14.0922C11.1833 14.6414 11.1833 15.0313 11.1888 15.2619C11.1778 15.8715 11.1696 16.4069 11.1641 16.8682C11.1586 17.3295 11.1284 17.7414 11.0735 18.1038C11.024 18.4663 10.9362 18.7848 10.8099 19.0594C10.6891 19.3394 10.5051 19.5975 10.258 19.8337C9.82962 20.2455 9.38206 20.6547 8.91527 21.061C8.45398 21.4729 7.97346 21.8409 7.47372 22.1649C6.97948 22.4944 6.46327 22.758 5.92509 22.9557C5.38691 23.1588 4.82951 23.2604 4.25289 23.2604C3.90692 23.2604 3.54173 23.2083 3.15732 23.1039C2.7729 23.0051 2.41595 22.8568 2.08645 22.6591C1.76245 22.4614 1.4961 22.2143 1.28742 21.9177C1.07325 21.6212 0.966163 21.2752 0.966163 20.8798C0.966163 20.5668 1.05952 20.262 1.24624 19.9655C1.42746 19.6744 1.69929 19.4053 2.06174 19.1582C2.27042 19.0099 2.50656 18.8424 2.77016 18.6557C3.00081 18.4965 3.27539 18.307 3.5939 18.0873C3.9179 17.8677 4.2831 17.6233 4.68948 17.3542C4.27211 17.3213 3.90692 17.2004 3.5939 16.9918C3.28088 16.7831 3.01728 16.5222 2.80311 16.2092C2.59443 15.8962 2.43792 15.553 2.33357 15.1795C2.22923 14.8006 2.17706 14.4244 2.17706 14.051C2.17706 13.7599 2.19903 13.4716 2.24296 13.1861C2.2869 12.9005 2.34181 12.6342 2.40771 12.387C2.4791 12.1344 2.55873 11.9065 2.6466 11.7033C2.73995 11.4947 2.83606 11.3244 2.93491 11.1926C3.12711 10.929 3.36325 10.6792 3.64332 10.443C3.92889 10.2014 4.23916 9.98172 4.57415 9.78402C4.90914 9.58083 5.2606 9.39961 5.62854 9.24035C5.99648 9.0811 6.36167 8.94655 6.72412 8.83672C7.08656 8.7214 7.43803 8.63353 7.77851 8.57312C8.11899 8.51271 8.42926 8.48251 8.70934 8.48251C9.01687 8.48251 9.3848 8.49899 9.81315 8.53194C10.247 8.55939 10.7385 8.6198 11.2876 8.71316ZM9.06354 9.8664C8.73405 9.78951 8.38258 9.7346 8.00915 9.70165C7.63573 9.66321 7.27877 9.64399 6.93829 9.64399C6.477 9.64399 6.07336 9.69067 5.72739 9.78402C5.38691 9.87738 5.10135 10.0476 4.8707 10.2947C4.64554 10.5419 4.4753 10.8796 4.35998 11.3079C4.24466 11.7363 4.18699 12.2827 4.18699 12.9472C4.18699 13.3096 4.23916 13.6693 4.3435 14.0263C4.44784 14.3832 4.59886 14.7045 4.79656 14.9901C4.99975 15.2756 5.24687 15.509 5.53793 15.6903C5.83448 15.866 6.17221 15.9538 6.55113 15.9538C6.91907 15.9538 7.24033 15.8962 7.51491 15.7809C7.79498 15.6655 8.03387 15.509 8.23156 15.3113C8.42926 15.1136 8.59127 14.883 8.71757 14.6194C8.84937 14.3558 8.95371 14.0757 9.03059 13.7792C9.03059 13.3124 9.03334 12.7632 9.03883 12.1317C9.04432 11.4947 9.05256 10.7396 9.06354 9.8664ZM3.27264 18.9193C2.98158 19.2049 2.83606 19.5042 2.83606 19.8172C2.83606 20.0588 2.89921 20.273 3.02552 20.4597C3.15732 20.6464 3.32481 20.8112 3.528 20.954C3.73668 21.0967 3.97007 21.2148 4.22818 21.3082C4.48629 21.407 4.74439 21.4866 5.0025 21.5471C5.26609 21.6075 5.51596 21.6514 5.7521 21.6789C5.98824 21.7063 6.18594 21.72 6.3452 21.72C6.70764 21.72 7.04263 21.6871 7.35016 21.6212C7.65769 21.5553 7.89658 21.4592 8.06682 21.3329C8.25353 21.1901 8.4073 20.9265 8.52811 20.5421C8.64893 20.1632 8.74503 19.6964 8.81642 19.1417C8.88781 18.5926 8.93724 17.9748 8.9647 17.2883C8.99764 16.6019 9.01961 15.8825 9.03059 15.1301C8.75052 15.4047 8.45672 15.6683 8.14919 15.9209C7.84715 16.1735 7.53413 16.4014 7.21013 16.6046C6.88612 16.8023 6.55662 16.9671 6.22164 17.0988C5.88665 17.2306 5.55166 17.3158 5.21667 17.3542C4.88717 17.6013 4.59886 17.8183 4.35174 18.005C4.11011 18.1972 3.90967 18.3619 3.75041 18.4992C3.5637 18.6585 3.40444 18.7985 3.27264 18.9193ZM26.3868 15.4843C25.975 15.7864 25.6153 16.0472 25.3077 16.2669C25.0002 16.4865 24.7146 16.6678 24.451 16.8105C24.1874 16.9478 23.9348 17.0439 23.6932 17.0988C23.4516 17.1593 23.1907 17.1812 22.9106 17.1647C22.6965 17.1538 22.5125 17.1071 22.3587 17.0247C22.2105 16.9478 22.0869 16.8353 21.9881 16.687C21.8892 16.5332 21.8123 16.3465 21.7574 16.1268C21.708 15.9017 21.675 15.6353 21.6586 15.3278C21.3455 15.5969 21.0215 15.8468 20.6865 16.0774C20.3516 16.3081 20.0028 16.5085 19.6404 16.6787C19.2834 16.8435 18.9127 16.9725 18.5283 17.0659C18.1494 17.1593 17.7595 17.2059 17.3586 17.2059C16.8095 17.2059 16.3592 17.1236 16.0077 16.9588C15.6562 16.7941 15.3762 16.5634 15.1675 16.2669C14.9643 15.9703 14.8215 15.6161 14.7391 15.2042C14.6622 14.7924 14.6238 14.3393 14.6238 13.8451C14.6238 13.5211 14.6293 13.2026 14.6403 12.8895C14.6513 12.5765 14.6568 12.2717 14.6568 11.9752C14.6568 11.6292 14.643 11.3052 14.6156 11.0032C14.5936 10.7011 14.5442 10.4403 14.4673 10.2206C14.3959 9.99545 14.2888 9.81972 14.146 9.69341C14.0087 9.56161 13.8248 9.49571 13.5941 9.49571C13.4019 9.49571 13.1713 9.54514 12.9022 9.64399C13.1054 9.48473 13.3168 9.32273 13.5365 9.15798C13.7616 8.99323 13.9895 8.84496 14.2202 8.71316C14.4563 8.58136 14.6952 8.47427 14.9368 8.3919C15.1839 8.30403 15.4338 8.2601 15.6864 8.2601C15.9171 8.2601 16.0983 8.31502 16.2301 8.42485C16.3674 8.53468 16.4717 8.67746 16.5431 8.85319C16.6145 9.02343 16.6612 9.21564 16.6832 9.42981C16.7051 9.6385 16.7161 9.84443 16.7161 10.0476C16.7161 10.5913 16.7106 11.1102 16.6996 11.6045C16.6886 12.0987 16.6832 12.593 16.6832 13.0872C16.6886 13.5156 16.7381 13.8972 16.8314 14.2322C16.9248 14.5617 17.0703 14.8418 17.268 15.0724C17.4712 15.3031 17.7321 15.4761 18.0506 15.5914C18.3746 15.7067 18.7672 15.7589 19.2285 15.7479C19.5745 15.7424 19.8765 15.715 20.1346 15.6655C20.3982 15.6161 20.6261 15.5282 20.8183 15.4019C21.016 15.2756 21.1808 15.1081 21.3126 14.8995C21.4499 14.6853 21.5652 14.4135 21.6586 14.084C21.675 13.3536 21.697 12.6589 21.7245 11.9999C21.7519 11.3409 21.7656 10.6846 21.7656 10.0311C21.7601 9.89935 21.7272 9.78677 21.6668 9.69341C21.6174 9.61653 21.535 9.55612 21.4197 9.51219C21.3098 9.46826 21.1533 9.47375 20.9501 9.52866C21.1094 9.40785 21.2879 9.2733 21.4856 9.12503C21.6833 8.97676 21.8837 8.83672 22.0869 8.70492C22.2956 8.57312 22.4988 8.46329 22.6965 8.37542C22.8997 8.28756 23.0891 8.24363 23.2649 8.24363C23.4516 8.24363 23.6108 8.29854 23.7426 8.40837C23.8744 8.51821 23.9403 8.67746 23.9403 8.88614C23.9403 9.00147 23.9376 9.2074 23.9321 9.50395C23.9321 9.79501 23.9266 10.1355 23.9156 10.5254C23.9101 10.9153 23.9046 11.3299 23.8991 11.7692C23.8936 12.2086 23.8881 12.6314 23.8827 13.0378C23.8772 13.4387 23.8744 13.8039 23.8744 14.1334C23.8744 14.4629 23.8744 14.71 23.8744 14.8747C23.8854 15.1878 24.0062 15.4184 24.2369 15.5667C24.473 15.715 24.7613 15.7891 25.1018 15.7891C25.305 15.7891 25.5164 15.7644 25.7361 15.715C25.9612 15.66 26.1782 15.5832 26.3868 15.4843ZM30.3326 1.61251C30.3326 1.77176 30.3353 1.92553 30.3408 2.0738C30.3463 2.21658 30.349 2.35662 30.349 2.49391C30.349 2.81791 30.3216 3.09524 30.2667 3.32589C30.2117 3.55654 30.0827 3.7405 29.8795 3.87779C29.7587 3.96566 29.6077 4.06726 29.4264 4.18258C29.1244 4.38028 28.6384 4.68232 27.9684 5.0887C28.0343 4.91296 28.081 4.70154 28.1085 4.45441C28.1414 4.2018 28.1634 3.96291 28.1744 3.73776C28.1853 3.47416 28.1853 3.19958 28.1744 2.91402C28.5203 2.73279 28.8251 2.5653 29.0887 2.41153C29.3523 2.25228 29.5775 2.11224 29.7642 1.99143C29.9838 1.85414 30.1733 1.72783 30.3326 1.61251ZM33.2321 15.6491C32.6061 16.0609 32.0734 16.3849 31.6341 16.6211C31.2002 16.8572 30.8268 17.0329 30.5138 17.1483C30.2008 17.2636 29.9372 17.3295 29.723 17.346C29.5088 17.3624 29.3139 17.3542 29.1381 17.3213C28.9789 17.2938 28.8224 17.2526 28.6686 17.1977C28.5148 17.1428 28.3748 17.0439 28.2485 16.9012C28.1277 16.7529 28.0288 16.5415 27.9519 16.2669C27.8751 15.9923 27.8366 15.6189 27.8366 15.1466C27.8366 14.7512 27.8476 14.3613 27.8696 13.9769C27.8915 13.587 27.9135 13.2026 27.9355 12.8236C27.9629 12.4392 27.9821 12.0603 27.9931 11.6869C28.0096 11.3079 28.0124 10.9318 28.0014 10.5583C27.9904 10.1959 27.9245 9.9323 27.8037 9.76755C27.6829 9.59731 27.5016 9.51219 27.26 9.51219C27.1666 9.51219 27.065 9.52317 26.9552 9.54514C26.8454 9.5671 26.7273 9.60005 26.601 9.64399C26.7987 9.5067 27.0019 9.36941 27.2106 9.23212C27.4193 9.08933 27.6307 8.96303 27.8449 8.85319C28.059 8.74336 28.2732 8.6555 28.4874 8.5896C28.707 8.51821 28.924 8.48251 29.1381 8.48251C29.3688 8.48251 29.5692 8.53468 29.7395 8.63902C29.9152 8.74336 30.0278 8.91635 30.0772 9.15798C30.0937 9.25134 30.1047 9.38863 30.1101 9.56985C30.1211 9.75107 30.1266 9.9625 30.1266 10.2041C30.1266 10.5611 30.1184 10.9565 30.1019 11.3903C30.0909 11.8242 30.0772 12.2525 30.0607 12.6754C30.0442 13.0927 30.0278 13.4799 30.0113 13.8368C29.9948 14.1883 29.9838 14.4601 29.9783 14.6523C29.9729 14.8336 30.0058 15.0148 30.0772 15.196C30.1486 15.3772 30.2529 15.542 30.3902 15.6903C30.533 15.833 30.706 15.9511 30.9092 16.0445C31.1179 16.1323 31.354 16.1763 31.6176 16.1763C31.8482 16.1763 32.0981 16.1351 32.3672 16.0527C32.6363 15.9703 32.9246 15.8358 33.2321 15.6491ZM41.0989 15.1136C40.6705 15.4596 40.2477 15.7699 39.8303 16.0445C39.4129 16.319 39.0066 16.5497 38.6112 16.7364C38.2213 16.9231 37.8451 17.0604 37.4826 17.1483C37.1257 17.2416 36.7907 17.2773 36.4777 17.2554C36.1592 17.2334 35.8654 17.1565 35.5963 17.0247C35.3327 16.8929 35.1048 16.6952 34.9126 16.4316C34.7204 16.168 34.5721 15.8303 34.4677 15.4184C34.3634 15.0065 34.3195 14.5096 34.3359 13.9274C34.3414 13.6144 34.3524 13.2437 34.3689 12.8154C34.3799 12.4475 34.3909 11.9917 34.4018 11.448C34.4128 10.9043 34.4238 10.27 34.4348 9.54514C34.3195 9.55612 34.1767 9.56985 34.0064 9.58632C33.8417 9.6028 33.6605 9.633 33.4628 9.67694C33.2706 9.71538 33.0701 9.77029 32.8614 9.84168C32.6528 9.90758 32.4468 9.9927 32.2436 10.097C32.4084 9.9927 32.5731 9.88562 32.7379 9.77579C32.9081 9.66595 33.0619 9.56436 33.1992 9.471C33.3584 9.36666 33.5122 9.26232 33.6605 9.15798C33.8087 9.0811 33.9405 8.94106 34.0559 8.73787C34.1547 8.56214 34.2453 8.31227 34.3277 7.98827C34.4101 7.66426 34.4513 7.22768 34.4513 6.67852C34.8357 6.48631 35.1597 6.31058 35.4233 6.15132C35.6869 5.99207 35.901 5.85752 36.0658 5.74769C36.258 5.61589 36.4118 5.50331 36.5271 5.40995L36.4941 8.17773C36.6369 8.18322 36.777 8.18871 36.9143 8.1942C37.0515 8.1942 37.1724 8.1942 37.2767 8.1942H37.6227C38.0949 8.20518 38.5425 8.19969 38.9654 8.17773C39.1466 8.17223 39.3306 8.16125 39.5173 8.14478C39.7095 8.1283 39.8934 8.10908 40.0692 8.08711C40.2449 8.05966 40.4069 8.02671 40.5552 7.98827C40.709 7.94982 40.838 7.90589 40.9423 7.85647C40.6458 8.15301 40.319 8.40288 39.9621 8.60607C39.6106 8.80926 39.2427 8.97676 38.8583 9.10855C38.4739 9.23486 38.0785 9.33096 37.6721 9.39686C37.2712 9.46276 36.8731 9.5067 36.4777 9.52866C36.4667 10.314 36.4584 11.0855 36.453 11.8434C36.4475 12.6012 36.4447 13.3481 36.4447 14.084C36.4502 14.3256 36.5106 14.5535 36.6259 14.7677C36.7413 14.9818 36.9005 15.1685 37.1037 15.3278C37.3124 15.4871 37.5568 15.6161 37.8368 15.715C38.1169 15.8083 38.4272 15.855 38.7677 15.855C39.1136 15.855 39.4843 15.7973 39.8797 15.682C40.2806 15.5667 40.687 15.3772 41.0989 15.1136ZM52.9278 15.7314C52.6971 15.9621 52.4473 16.1735 52.1782 16.3657C51.9146 16.5524 51.6482 16.7144 51.3792 16.8517C51.1101 16.989 50.8492 17.0988 50.5966 17.1812C50.344 17.2636 50.1133 17.3103 49.9047 17.3213C49.7893 17.3322 49.6411 17.3295 49.4598 17.313C49.2786 17.302 49.1029 17.2554 48.9326 17.173C48.7679 17.0906 48.6251 16.9616 48.5043 16.7858C48.3835 16.6101 48.3231 16.3602 48.3231 16.0362V15.056C48.021 15.3525 47.7025 15.6381 47.3675 15.9127C47.0325 16.1817 46.6866 16.4234 46.3296 16.6376C45.9782 16.8462 45.6212 17.011 45.2588 17.1318C44.8963 17.2581 44.5394 17.3213 44.1879 17.3213C43.7376 17.3213 43.3422 17.2197 43.0017 17.0165C42.6612 16.8188 42.3757 16.5607 42.145 16.2422C41.9144 15.9236 41.7414 15.5667 41.6261 15.1713C41.5107 14.7759 41.4531 14.3832 41.4531 13.9933C41.4531 13.7023 41.475 13.4167 41.519 13.1367C41.5629 12.8511 41.6178 12.582 41.6837 12.3294C41.7551 12.0768 41.8347 11.8489 41.9226 11.6457C42.016 11.4425 42.1121 11.275 42.2109 11.1432C42.3921 10.8961 42.6228 10.6572 42.9029 10.4265C43.1829 10.1959 43.4877 9.97898 43.8172 9.77579C44.1522 9.5726 44.5064 9.38863 44.8798 9.22388C45.2533 9.05913 45.6239 8.91635 45.9919 8.79553C46.3653 8.67472 46.7278 8.58136 47.0792 8.51546C47.4307 8.44956 47.7547 8.41661 48.0512 8.41661C48.3588 8.41661 48.7212 8.43309 49.1386 8.46604C49.5559 8.49349 50.031 8.5539 50.5637 8.64726C50.5417 9.27879 50.5225 9.83619 50.506 10.3195C50.4895 10.8027 50.4758 11.2366 50.4648 11.621C50.4538 11.9999 50.4456 12.3459 50.4401 12.6589C50.4346 12.9719 50.4319 13.2767 50.4319 13.5732C50.4319 13.8753 50.4264 14.1718 50.4154 14.4629C50.4044 14.7539 50.4264 15.0148 50.4813 15.2454C50.5362 15.4761 50.6433 15.6628 50.8025 15.8056C50.9673 15.9484 51.2199 16.0197 51.5604 16.0197C51.7636 16.0197 51.9805 15.995 52.2111 15.9456C52.4418 15.8907 52.6807 15.8193 52.9278 15.7314ZM48.3395 9.83345C48.0101 9.74558 47.6586 9.68517 47.2852 9.65222C46.9117 9.61378 46.5548 9.59456 46.2143 9.59456C46.0276 9.59456 45.8491 9.60005 45.6789 9.61104C45.5141 9.62202 45.3631 9.63575 45.2258 9.65222C45.0885 9.6687 44.9677 9.69067 44.8634 9.71812C44.759 9.74009 44.6794 9.76755 44.6245 9.8005C44.5256 9.84992 44.4103 9.97074 44.2785 10.1629C44.1467 10.3497 44.0204 10.5831 43.8996 10.8631C43.7788 11.1432 43.6744 11.459 43.5866 11.8104C43.5042 12.1619 43.463 12.5243 43.463 12.8978C43.463 13.2547 43.5152 13.6144 43.6195 13.9769C43.7238 14.3338 43.8749 14.6551 44.0726 14.9406C44.2758 15.2262 44.5229 15.4596 44.8139 15.6408C45.1105 15.8166 45.4482 15.9044 45.8271 15.9044C46.1841 15.9044 46.4999 15.8468 46.7744 15.7314C47.049 15.6161 47.2879 15.4596 47.4911 15.2619C47.6943 15.0587 47.8618 14.8226 47.9936 14.5535C48.1309 14.2844 48.2407 13.9933 48.3231 13.6803C48.3231 13.4497 48.3231 13.2053 48.3231 12.9472C48.3231 12.6836 48.3231 12.3953 48.3231 12.0823C48.3231 11.7692 48.3231 11.4288 48.3231 11.0608C48.3286 10.6874 48.3341 10.2783 48.3395 9.83345ZM56.6758 10.3359C56.9339 10.0888 57.214 9.84168 57.516 9.59456C57.8236 9.34744 58.1338 9.12503 58.4469 8.92733C58.7654 8.72414 59.0839 8.55939 59.4024 8.43309C59.7209 8.30678 60.0202 8.24363 60.3003 8.24363C60.4925 8.24363 60.6792 8.26559 60.8604 8.30953C61.0471 8.34797 61.2284 8.39465 61.4041 8.44956C61.5853 8.49899 61.7638 8.54566 61.9395 8.5896C62.1153 8.62804 62.2937 8.64726 62.475 8.64726C62.5848 8.64726 62.7001 8.63902 62.8209 8.62255C62.9417 8.60607 63.079 8.57587 63.2328 8.53194C62.8868 8.79553 62.5848 9.02343 62.3267 9.21564C62.0686 9.40785 61.8269 9.5671 61.6018 9.69341C61.3766 9.81423 61.1515 9.90484 60.9263 9.96525C60.7067 10.0202 60.4595 10.0421 60.185 10.0311C59.9159 10.0257 59.6605 9.9982 59.4189 9.94877C59.1827 9.89935 58.9658 9.84992 58.7681 9.8005C58.5759 9.74558 58.4057 9.70714 58.2574 9.68517C58.1146 9.65772 58.002 9.66595 57.9197 9.70989C57.722 9.80874 57.549 9.98996 57.4007 10.2536C57.2524 10.5172 57.1261 10.8302 57.0218 11.1926C56.9229 11.5551 56.8406 11.9477 56.7747 12.3706C56.7143 12.7934 56.6676 13.2163 56.6346 13.6391C56.6072 14.062 56.5934 14.4656 56.5934 14.85C56.5934 15.229 56.6044 15.5585 56.6264 15.8385C56.2145 16.1021 55.874 16.33 55.605 16.5222C55.3359 16.7144 55.1217 16.8737 54.9624 17C54.7757 17.1483 54.6329 17.2773 54.5341 17.3872C54.5396 17.0577 54.5478 16.6595 54.5588 16.1927C54.5698 15.7205 54.578 15.2262 54.5835 14.71C54.5945 14.1938 54.6027 13.6831 54.6082 13.1778C54.6137 12.6671 54.6165 12.2086 54.6165 11.8022C54.6165 11.5441 54.6082 11.2832 54.5917 11.0196C54.5808 10.7505 54.5368 10.5062 54.46 10.2865C54.3831 10.0668 54.2623 9.88836 54.0975 9.75107C53.9382 9.61378 53.7103 9.54514 53.4138 9.54514C53.2985 9.54514 53.1777 9.55887 53.0514 9.58632C52.9305 9.60829 52.8097 9.64948 52.6889 9.70989C52.9196 9.55612 53.1502 9.39961 53.3808 9.24035C53.6115 9.0811 53.8421 8.93831 54.0728 8.81201C54.3089 8.68021 54.5423 8.57587 54.773 8.49899C55.0091 8.41661 55.248 8.37542 55.4896 8.37542C55.7807 8.37542 56.0058 8.43858 56.1651 8.56489C56.3298 8.69119 56.4479 8.85045 56.5193 9.04266C56.5962 9.23486 56.6401 9.44629 56.6511 9.67694C56.6676 9.90758 56.6758 10.1272 56.6758 10.3359ZM72.8047 6.71147C72.9365 6.60713 72.9969 6.50828 72.9859 6.41492C72.9749 6.32156 72.9365 6.23919 72.8706 6.1678C72.7937 6.08542 72.6839 6.00854 72.5411 5.93715C72.2775 5.81084 71.937 5.72023 71.5196 5.66531C71.1023 5.6104 70.6602 5.58294 70.1934 5.58294C69.5289 5.58294 68.9001 5.64335 68.307 5.76416C67.7194 5.88498 67.195 6.10739 66.7337 6.43139C66.2779 6.74991 65.9017 7.19198 65.6052 7.75762C65.3086 8.31776 65.1219 9.03716 65.045 9.91582C65.3855 9.9268 65.7205 9.9323 66.05 9.9323C66.385 9.9323 66.7145 9.9323 67.0385 9.9323C67.4284 9.9323 67.8622 9.92406 68.34 9.90758C68.8233 9.88562 69.3148 9.86365 69.8145 9.84168C70.3197 9.81423 70.814 9.78677 71.2972 9.75931C71.7805 9.73185 72.2171 9.70989 72.607 9.69341C72.9969 9.67144 73.3209 9.66046 73.579 9.66046C73.8426 9.66046 74.0018 9.67144 74.0568 9.69341C74.1227 9.72636 74.1336 9.78128 74.0897 9.85816C74.0513 9.92955 73.9716 10.0147 73.8508 10.1135C73.7355 10.2069 73.59 10.3085 73.4142 10.4183C73.244 10.5281 73.0628 10.6352 72.8706 10.7396C72.6784 10.8384 72.4834 10.9318 72.2857 11.0196C72.0935 11.102 71.9178 11.1679 71.7585 11.2173C71.8848 11.0032 71.9068 10.8521 71.8244 10.7643C71.7475 10.6709 71.5306 10.6242 71.1737 10.6242C71.0144 10.6242 70.8689 10.627 70.7371 10.6325C70.6053 10.638 70.4543 10.649 70.284 10.6654C70.1138 10.6764 69.9024 10.6929 69.6497 10.7149C69.3971 10.7313 69.0704 10.756 68.6695 10.789C68.2686 10.8164 67.7716 10.8521 67.1785 10.8961C66.5854 10.9345 65.8633 10.9784 65.0121 11.0279C65.0395 11.9175 65.1933 12.6726 65.4734 13.2932C65.7589 13.9137 66.1461 14.4244 66.6349 14.8253C67.1236 15.2262 67.7057 15.5337 68.3812 15.7479C69.0621 15.9566 69.8117 16.0939 70.63 16.1598C71.1023 16.1817 71.5691 16.1598 72.0304 16.0939C72.2281 16.0664 72.434 16.028 72.6482 15.9786C72.8678 15.9291 73.0847 15.866 73.2989 15.7891C73.5186 15.7067 73.7328 15.6079 73.9414 15.4926C74.1501 15.3772 74.3451 15.2399 74.5263 15.0807C74.1199 15.4267 73.6943 15.7424 73.2495 16.028C72.8102 16.3081 72.3544 16.5524 71.8821 16.7611C71.4153 16.9643 70.9403 17.1208 70.457 17.2306C69.9738 17.346 69.4932 17.4036 69.0155 17.4036C68.5981 17.4036 68.156 17.3679 67.6892 17.2965C67.2279 17.2306 66.7694 17.1181 66.3136 16.9588C65.8633 16.7941 65.4322 16.5799 65.0203 16.3163C64.6139 16.0472 64.2597 15.715 63.9577 15.3196C63.6611 14.9187 63.4305 14.4491 63.2657 13.911C63.101 13.3673 63.0378 12.744 63.0763 12.0411C63.1147 11.2228 63.2685 10.4677 63.5376 9.77579C63.8122 9.08384 64.1691 8.46054 64.6084 7.90589C65.0478 7.34575 65.5558 6.85425 66.1324 6.43139C66.709 6.00305 67.324 5.64609 67.9776 5.36053C68.6365 5.07497 69.3203 4.86079 70.0287 4.71801C70.7371 4.56974 71.44 4.4956 72.1374 4.4956C72.445 4.4956 72.7278 4.50933 72.9859 4.53679C73.244 4.56425 73.4747 4.5972 73.6778 4.63564C73.8865 4.67408 74.065 4.71801 74.2133 4.76744C74.3615 4.81137 74.4769 4.85256 74.5592 4.891C74.8064 5.00083 74.9299 5.12988 74.9299 5.27816C74.9299 5.36602 74.8833 5.45938 74.7899 5.55823C74.702 5.65708 74.5867 5.75593 74.4439 5.85477C74.3066 5.95362 74.1529 6.04973 73.9826 6.14308C73.8179 6.23095 73.6559 6.31332 73.4966 6.39021C73.3429 6.46709 73.2028 6.53299 73.0765 6.58791C72.9502 6.64282 72.8596 6.68401 72.8047 6.71147ZM86.6353 15.4349C86.2289 15.7479 85.8665 16.017 85.548 16.2422C85.2294 16.4673 84.9384 16.654 84.6748 16.8023C84.4167 16.9506 84.1778 17.0632 83.9581 17.14C83.744 17.2169 83.5408 17.2663 83.3486 17.2883C83.052 17.3213 82.7857 17.2334 82.5495 17.0247C82.3189 16.816 82.0745 16.5222 81.8164 16.1433C81.756 16.0609 81.6736 15.9456 81.5693 15.7973C81.4704 15.6436 81.3551 15.4678 81.2233 15.2701C81.0915 15.067 80.946 14.8473 80.7867 14.6111C80.633 14.3695 80.4737 14.1196 80.309 13.8615C80.0014 14.3173 79.6939 14.7732 79.3864 15.229C79.0788 15.6793 78.7795 16.1076 78.4885 16.514C78.2029 16.9149 77.9283 17.2828 77.6648 17.6178C77.4066 17.9528 77.1705 18.2301 76.9563 18.4498C76.6378 18.8012 76.3056 19.1335 75.9596 19.4465C75.8113 19.5838 75.6521 19.7211 75.4818 19.8584C75.3061 20.0012 75.1249 20.1385 74.9382 20.2703C74.7515 20.4021 74.5592 20.5229 74.3615 20.6327C74.1638 20.748 73.9662 20.8469 73.7685 20.9292L73.7026 20.3197C73.9881 20.2208 74.2627 20.0945 74.5263 19.9408C74.7844 19.787 75.015 19.6387 75.2182 19.4959C75.4544 19.3257 75.674 19.1527 75.8772 18.977C76.1408 18.7408 76.4127 18.4443 76.6927 18.0873C76.9783 17.7359 77.2666 17.346 77.5577 16.9176C77.8542 16.4893 78.1508 16.0335 78.4473 15.5502C78.7493 15.0615 79.0459 14.5672 79.3369 14.0675C79.4138 13.9302 79.4962 13.7902 79.5841 13.6474C79.6774 13.4991 79.7735 13.3453 79.8724 13.1861C79.6802 12.895 79.4907 12.6095 79.304 12.3294C79.1228 12.0438 78.9498 11.7775 78.785 11.5304C78.6258 11.2832 78.4803 11.0636 78.3485 10.8714C78.2221 10.6737 78.1178 10.5172 78.0354 10.4018C77.8432 10.1327 77.6318 9.94328 77.4012 9.83345C77.176 9.71812 76.9481 9.66046 76.7174 9.66046C76.5417 9.66046 76.366 9.68792 76.1903 9.74284C76.0145 9.79775 75.847 9.87738 75.6878 9.98172C75.9019 9.77304 76.1244 9.56436 76.355 9.35568C76.5911 9.1415 76.8328 8.95204 77.0799 8.7873C77.3325 8.61706 77.5906 8.47977 77.8542 8.37542C78.1233 8.26559 78.3979 8.21068 78.678 8.21068C78.8482 8.21068 79.0102 8.23813 79.164 8.29305C79.3232 8.34797 79.4687 8.44407 79.6005 8.58136C79.6774 8.66373 79.7763 8.79004 79.8971 8.96028C80.0234 9.12503 80.1634 9.32273 80.3172 9.55338C80.471 9.77853 80.6357 10.0284 80.8114 10.303C80.9927 10.5721 81.1794 10.8521 81.3716 11.1432C81.6956 10.7588 82.0388 10.3881 82.4013 10.0311C82.7637 9.67419 83.1344 9.36117 83.5133 9.09208C83.8922 8.8175 84.2767 8.60058 84.6666 8.44132C85.0565 8.27658 85.4436 8.1942 85.828 8.1942C85.9818 8.1942 86.1328 8.20793 86.2811 8.23539C86.4294 8.25735 86.5886 8.29305 86.7589 8.34247C86.7424 8.35346 86.6875 8.38092 86.5941 8.42485C86.5008 8.46878 86.3744 8.54566 86.2152 8.6555C86.0559 8.76533 85.8637 8.9136 85.6386 9.10032C85.4189 9.28703 85.1663 9.52592 84.8807 9.81697C84.6885 9.67968 84.5128 9.58632 84.3535 9.5369C84.1943 9.48748 84.0515 9.46276 83.9252 9.46276C83.8154 9.46276 83.6836 9.52043 83.5298 9.63575C83.3815 9.74558 83.214 9.90209 83.0273 10.1053C82.8406 10.3085 82.6374 10.5501 82.4177 10.8302C82.2036 11.1048 81.9784 11.4068 81.7423 11.7363C81.929 12.0328 82.113 12.3266 82.2942 12.6177C82.4754 12.9033 82.6456 13.1723 82.8049 13.425C82.9642 13.6776 83.1097 13.9055 83.2415 14.1087C83.3788 14.3119 83.4941 14.4766 83.5875 14.6029C83.8401 14.9818 84.1146 15.2811 84.4112 15.5008C84.7132 15.715 85.0455 15.822 85.4079 15.822C85.7814 15.822 86.1905 15.693 86.6353 15.4349ZM92.9452 22.8898C92.5003 23.2302 92.0995 23.5076 91.7425 23.7217C91.3855 23.9414 91.0643 24.1144 90.7787 24.2407C90.4986 24.3725 90.2488 24.4658 90.0291 24.5208C89.8095 24.5757 89.6172 24.6059 89.4525 24.6114C89.2823 24.6224 89.1422 24.5894 89.0324 24.5125C88.928 24.4356 88.8457 24.3258 88.7853 24.183C88.7249 24.0457 88.6837 23.8782 88.6617 23.6805C88.6397 23.4828 88.6342 23.2632 88.6452 23.0216C88.6507 22.9282 88.6535 22.747 88.6535 22.4779C88.659 22.2143 88.6644 21.8848 88.6699 21.4894C88.6754 21.0995 88.6782 20.6602 88.6782 20.1714C88.6837 19.6827 88.6892 19.1664 88.6947 18.6228C88.7001 18.0846 88.7056 17.5327 88.7111 16.9671C88.7166 16.4014 88.7221 15.8468 88.7276 15.3031C88.7331 14.7539 88.7358 14.2322 88.7358 13.738C88.7413 13.2382 88.7468 12.7879 88.7523 12.387C88.7578 11.9807 88.7606 11.6374 88.7606 11.3574C88.766 11.0718 88.7715 10.8714 88.777 10.756C88.7935 10.3442 88.7413 10.0366 88.6205 9.83345C88.4997 9.63026 88.2993 9.52866 88.0192 9.52866C87.9148 9.52866 87.7995 9.54514 87.6732 9.57809C87.5524 9.60555 87.4206 9.64399 87.2778 9.69341C87.4755 9.54514 87.6842 9.38863 87.9039 9.22388C88.1235 9.05364 88.3487 8.89713 88.5793 8.75435C88.8155 8.61156 89.0544 8.49349 89.296 8.40014C89.5376 8.30678 89.782 8.2601 90.0291 8.2601C90.1554 8.2601 90.2762 8.28207 90.3916 8.326C90.5069 8.36993 90.6085 8.44682 90.6963 8.55665C90.7842 8.66648 90.8529 8.81475 90.9023 9.00147C90.9572 9.18269 90.9847 9.41334 90.9847 9.69341V10.2536C91.6217 9.65497 92.3191 9.19093 93.077 8.86143C93.8403 8.52644 94.6558 8.35895 95.5235 8.35895C95.9848 8.35895 96.3994 8.45505 96.7673 8.64726C97.1353 8.83947 97.4483 9.09483 97.7064 9.41334C97.97 9.72636 98.1704 10.0861 98.3077 10.4924C98.445 10.8933 98.5137 11.3025 98.5137 11.7198C98.5137 12.3129 98.3983 12.8483 98.1677 13.3261C97.9425 13.7984 97.646 14.224 97.278 14.6029C96.9101 14.9818 96.4955 15.3168 96.0342 15.6079C95.5729 15.8989 95.1116 16.1598 94.6503 16.3904C94.4142 16.5112 94.1451 16.6238 93.843 16.7282C93.541 16.8325 93.2225 16.9231 92.8875 17C92.5525 17.0824 92.212 17.151 91.8661 17.2059C91.5201 17.2609 91.1878 17.2993 90.8693 17.3213C90.8529 18.1725 90.8391 19.0127 90.8281 19.8419C90.8227 20.6711 90.8199 21.5114 90.8199 22.3626C90.8309 22.6426 90.9023 22.8623 91.0341 23.0216C91.1714 23.1808 91.3801 23.2604 91.6601 23.2604C91.9951 23.2604 92.4235 23.1369 92.9452 22.8898ZM93.2994 16.0033C93.6838 16.0033 94.0215 15.9731 94.3126 15.9127C94.6036 15.8468 94.848 15.7754 95.0457 15.6985C95.2763 15.6106 95.4768 15.509 95.647 15.3937C95.7459 15.3058 95.8365 15.1795 95.9189 15.0148C96.0067 14.85 96.0809 14.6606 96.1413 14.4464C96.2072 14.2322 96.2593 13.9988 96.2978 13.7462C96.3362 13.4881 96.3555 13.2218 96.3555 12.9472C96.3555 12.4859 96.2841 12.0521 96.1413 11.6457C95.9985 11.2338 95.7926 10.8741 95.5235 10.5666C95.2599 10.259 94.9386 10.0147 94.5597 9.83345C94.1808 9.65222 93.7552 9.56161 93.2829 9.56161C92.8875 9.56161 92.5443 9.67968 92.2532 9.91582C91.9622 10.152 91.7205 10.5144 91.5283 11.0032C91.3361 11.4919 91.1878 12.118 91.0835 12.8813C90.9847 13.6391 90.9242 14.5398 90.9023 15.5832C91.3691 15.7424 91.8002 15.8523 92.1956 15.9127C92.591 15.9731 92.9589 16.0033 93.2994 16.0033ZM106.265 15.4843C105.716 15.8632 105.255 16.1763 104.881 16.4234C104.508 16.665 104.181 16.8572 103.901 17C103.626 17.1483 103.376 17.2499 103.151 17.3048C102.932 17.3597 102.698 17.3872 102.451 17.3872C102.237 17.3872 102.028 17.335 101.825 17.2306C101.627 17.1318 101.449 16.9478 101.29 16.6787C101.136 16.4042 101.012 16.0307 100.919 15.5585C100.826 15.0807 100.779 14.4656 100.779 13.7133C100.779 12.9719 100.787 12.1948 100.804 11.3821C100.82 10.5693 100.837 9.75382 100.853 8.93557C100.875 8.11732 100.894 7.31554 100.911 6.53024C100.927 5.74494 100.935 5.01181 100.935 4.33085C100.935 3.66088 100.834 3.13917 100.631 2.76574C100.427 2.39231 100.117 2.2056 99.6998 2.2056C99.5735 2.2056 99.4335 2.22482 99.2797 2.26326C99.126 2.29621 98.964 2.35662 98.7937 2.44448C99.0079 2.29072 99.2331 2.13421 99.4692 1.97495C99.7053 1.8102 99.9442 1.66193 100.186 1.53013C100.433 1.39833 100.68 1.29125 100.927 1.20887C101.18 1.12101 101.43 1.07707 101.677 1.07707C101.99 1.07707 102.234 1.1567 102.41 1.31596C102.591 1.46972 102.723 1.66193 102.805 1.89258C102.893 2.12323 102.945 2.37584 102.962 2.65042C102.984 2.91951 102.995 3.16938 102.995 3.40002C102.989 3.75149 102.981 4.17434 102.97 4.66859C102.965 5.16283 102.956 5.69552 102.945 6.26665C102.934 6.83228 102.923 7.41988 102.912 8.02945C102.901 8.63902 102.89 9.23761 102.879 9.82521C102.869 10.4073 102.858 10.962 102.847 11.4892C102.841 12.0164 102.833 12.4804 102.822 12.8813C102.811 13.4195 102.849 13.8863 102.937 14.2817C103.025 14.6716 103.151 14.9928 103.316 15.2454C103.481 15.498 103.679 15.6848 103.909 15.8056C104.14 15.9264 104.395 15.9868 104.675 15.9868C105.18 15.9868 105.71 15.8193 106.265 15.4843ZM116.274 12.2058C116.274 12.6616 116.21 13.0762 116.084 13.4497C115.958 13.8231 115.807 14.1499 115.631 14.4299C115.455 14.71 115.277 14.9434 115.096 15.1301C114.914 15.3168 114.769 15.4514 114.659 15.5337C114.34 15.7644 114.014 15.9895 113.679 16.2092C113.344 16.4289 112.998 16.6266 112.641 16.8023C112.289 16.9725 111.927 17.1098 111.553 17.2142C111.18 17.3185 110.796 17.3707 110.4 17.3707C109.813 17.3707 109.255 17.2965 108.728 17.1483C108.206 17 107.748 16.7776 107.352 16.481C106.962 16.1845 106.652 15.8111 106.422 15.3608C106.196 14.9104 106.084 14.3832 106.084 13.7792C106.084 13.2465 106.174 12.7467 106.356 12.28C106.542 11.8077 106.79 11.3738 107.097 10.9784C107.41 10.5831 107.775 10.2288 108.193 9.91582C108.61 9.59731 109.052 9.32822 109.519 9.10855C109.986 8.88889 110.466 8.7214 110.96 8.60607C111.455 8.49075 111.932 8.43309 112.394 8.43309C112.965 8.43309 113.487 8.52919 113.959 8.7214C114.437 8.90811 114.846 9.17171 115.186 9.51219C115.532 9.84718 115.799 10.2453 115.985 10.7066C116.177 11.1679 116.274 11.6676 116.274 12.2058ZM110.59 9.38863C110.31 9.38863 110.054 9.4408 109.824 9.54514C109.593 9.64399 109.387 9.78128 109.206 9.95701C109.03 10.1272 108.876 10.3277 108.745 10.5583C108.618 10.7835 108.511 11.0224 108.423 11.275C108.341 11.5221 108.278 11.7747 108.234 12.0328C108.195 12.2855 108.176 12.5243 108.176 12.7495C108.176 13.2602 108.27 13.738 108.456 14.1828C108.643 14.6221 108.898 15.0065 109.222 15.336C109.552 15.6655 109.933 15.9236 110.367 16.1104C110.807 16.2971 111.273 16.3904 111.768 16.3904C112.075 16.3904 112.372 16.3328 112.657 16.2174C112.948 16.0966 113.204 15.9099 113.423 15.6573C113.649 15.3992 113.827 15.0697 113.959 14.6688C114.096 14.2624 114.165 13.7737 114.165 13.2026C114.165 12.7028 114.071 12.2223 113.885 11.761C113.698 11.2997 113.443 10.8933 113.119 10.5419C112.795 10.1904 112.416 9.91033 111.982 9.70165C111.548 9.49297 111.084 9.38863 110.59 9.38863ZM121.158 10.3359C121.416 10.0888 121.696 9.84168 121.999 9.59456C122.306 9.34744 122.616 9.12503 122.929 8.92733C123.248 8.72414 123.566 8.55939 123.885 8.43309C124.203 8.30678 124.503 8.24363 124.783 8.24363C124.975 8.24363 125.162 8.26559 125.343 8.30953C125.53 8.34797 125.711 8.39465 125.887 8.44956C126.068 8.49899 126.246 8.54566 126.422 8.5896C126.598 8.62804 126.776 8.64726 126.957 8.64726C127.067 8.64726 127.183 8.63902 127.303 8.62255C127.424 8.60607 127.562 8.57587 127.715 8.53194C127.369 8.79553 127.067 9.02343 126.809 9.21564C126.551 9.40785 126.309 9.5671 126.084 9.69341C125.859 9.81423 125.634 9.90484 125.409 9.96525C125.189 10.0202 124.942 10.0421 124.667 10.0311C124.398 10.0257 124.143 9.9982 123.901 9.94877C123.665 9.89935 123.448 9.84992 123.251 9.8005C123.058 9.74558 122.888 9.70714 122.74 9.68517C122.597 9.65772 122.485 9.66595 122.402 9.70989C122.204 9.80874 122.031 9.98996 121.883 10.2536C121.735 10.5172 121.609 10.8302 121.504 11.1926C121.405 11.5551 121.323 11.9477 121.257 12.3706C121.197 12.7934 121.15 13.2163 121.117 13.6391C121.09 14.062 121.076 14.4656 121.076 14.85C121.076 15.229 121.087 15.5585 121.109 15.8385C120.697 16.1021 120.357 16.33 120.087 16.5222C119.818 16.7144 119.604 16.8737 119.445 17C119.258 17.1483 119.115 17.2773 119.017 17.3872C119.022 17.0577 119.03 16.6595 119.041 16.1927C119.052 15.7205 119.061 15.2262 119.066 14.71C119.077 14.1938 119.085 13.6831 119.091 13.1778C119.096 12.6671 119.099 12.2086 119.099 11.8022C119.099 11.5441 119.091 11.2832 119.074 11.0196C119.063 10.7505 119.019 10.5062 118.942 10.2865C118.866 10.0668 118.745 9.88836 118.58 9.75107C118.421 9.61378 118.193 9.54514 117.896 9.54514C117.781 9.54514 117.66 9.55887 117.534 9.58632C117.413 9.60829 117.292 9.64948 117.171 9.70989C117.402 9.55612 117.633 9.39961 117.863 9.24035C118.094 9.0811 118.325 8.93831 118.555 8.81201C118.791 8.68021 119.025 8.57587 119.255 8.49899C119.492 8.41661 119.73 8.37542 119.972 8.37542C120.263 8.37542 120.488 8.43858 120.648 8.56489C120.812 8.69119 120.93 8.85045 121.002 9.04266C121.079 9.23486 121.123 9.44629 121.134 9.67694C121.15 9.90758 121.158 10.1272 121.158 10.3359ZM137.51 9.1415C136.878 9.44903 136.29 9.72362 135.747 9.96525C135.209 10.2014 134.734 10.4018 134.322 10.5666C133.844 10.7588 133.405 10.929 133.004 11.0773C132.757 11.1816 132.482 11.2887 132.18 11.3986C131.883 11.5029 131.573 11.6072 131.249 11.7116C130.925 11.8104 130.593 11.912 130.252 12.0164C129.917 12.1152 129.585 12.2141 129.256 12.3129V12.4777C129.256 13.0433 129.344 13.5513 129.519 14.0016C129.701 14.4519 129.95 14.8363 130.269 15.1548C130.587 15.4678 130.969 15.7095 131.414 15.8797C131.859 16.0445 132.35 16.1268 132.888 16.1268C133.168 16.1268 133.446 16.1049 133.72 16.0609C134 16.017 134.264 15.9593 134.511 15.8879C134.764 15.8111 135 15.7205 135.22 15.6161C135.439 15.5118 135.634 15.3992 135.804 15.2784C135.387 15.6518 134.956 15.9648 134.511 16.2174C134.072 16.4701 133.63 16.676 133.185 16.8353C132.746 16.989 132.309 17.1016 131.875 17.173C131.447 17.2444 131.035 17.2828 130.64 17.2883C130.239 17.2993 129.843 17.2361 129.453 17.0988C129.069 16.9671 128.718 16.7639 128.399 16.4893C128.08 16.2147 127.811 15.8742 127.592 15.4678C127.372 15.056 127.229 14.5782 127.163 14.0345C127.136 13.8423 127.122 13.6584 127.122 13.4826C127.128 13.3014 127.147 13.1229 127.18 12.9472C126.988 13.0186 126.812 13.0845 126.653 13.1449C126.499 13.2053 126.373 13.2657 126.274 13.3261C126.433 13.2163 126.592 13.1147 126.752 13.0213C126.911 12.9225 127.067 12.8319 127.221 12.7495C127.314 12.3211 127.474 11.912 127.699 11.5221C127.929 11.1322 128.204 10.7698 128.523 10.4348C128.847 10.0998 129.206 9.79775 129.602 9.52866C129.997 9.25408 130.406 9.02069 130.829 8.82848C131.257 8.63628 131.691 8.488 132.131 8.38366C132.57 8.27932 132.995 8.22715 133.407 8.22715C133.682 8.22715 133.913 8.26834 134.099 8.35071C134.291 8.43309 134.421 8.57861 134.486 8.7873C134.519 9.00696 134.44 9.2431 134.248 9.49571C134.165 9.60555 134.053 9.72362 133.91 9.84992C133.773 9.97074 133.591 10.0998 133.366 10.2371C133.146 10.3744 132.88 10.5172 132.567 10.6654C132.26 10.8137 131.894 10.962 131.472 11.1102L137.51 9.1415ZM130.977 11.1432C131.213 11.0389 131.425 10.9263 131.612 10.8055C131.804 10.6846 131.952 10.5583 132.056 10.4265C132.166 10.2947 132.224 10.1575 132.229 10.0147C132.235 9.87189 132.177 9.72087 132.056 9.56161C131.974 9.4408 131.859 9.35842 131.71 9.31449C131.568 9.26507 131.419 9.24035 131.266 9.24035C131.123 9.24035 130.986 9.25683 130.854 9.28978C130.722 9.31724 130.607 9.35568 130.508 9.4051C130.442 9.44354 130.351 9.52866 130.236 9.66046C130.121 9.78677 130.003 9.95426 129.882 10.1629C129.761 10.3661 129.646 10.605 129.536 10.8796C129.431 11.1487 129.355 11.4452 129.305 11.7692C129.651 11.6429 129.964 11.5304 130.244 11.4315C130.524 11.3327 130.769 11.2366 130.977 11.1432ZM144.948 18.6063C144.657 18.815 144.413 19.0044 144.215 19.1747C144.023 19.3449 143.866 19.4932 143.745 19.6195C143.603 19.7623 143.49 19.8913 143.408 20.0067C143.237 20.2373 143.037 20.3966 142.806 20.4844C142.576 20.5778 142.331 20.6245 142.073 20.6245C141.837 20.6245 141.604 20.5888 141.373 20.5174C141.148 20.446 140.95 20.3471 140.78 20.2208C140.599 20.0945 140.368 19.9051 140.088 19.6524C139.813 19.3998 139.52 19.0868 139.206 18.7134C138.899 18.3454 138.589 17.9171 138.276 17.4283C137.968 16.9396 137.688 16.3904 137.435 15.7809C137.188 15.1713 136.985 14.5041 136.826 13.7792C136.672 13.0488 136.595 12.2607 136.595 11.415C136.595 10.5419 136.691 9.70165 136.884 8.89438C137.081 8.08162 137.359 7.3128 137.716 6.58791C138.078 5.86301 138.512 5.18205 139.017 4.54503C139.522 3.90251 140.082 3.3149 140.697 2.78222C141.318 2.24953 141.985 1.77176 142.699 1.34891C143.419 0.920562 144.168 0.558116 144.948 0.261569C144.251 0.563608 143.63 0.915071 143.086 1.31596C142.543 1.71135 142.062 2.1397 141.645 2.601C141.233 3.0568 140.879 3.53457 140.582 4.03431C140.286 4.53404 140.036 5.03378 139.833 5.53352C139.629 6.03325 139.465 6.52475 139.338 7.00801C139.217 7.49128 139.124 7.94433 139.058 8.36719C138.992 8.79004 138.948 9.17445 138.926 9.52043C138.91 9.8664 138.902 10.1547 138.902 10.3854C138.902 10.4348 138.91 10.5885 138.926 10.8466C138.948 11.1048 138.99 11.4288 139.05 11.8187C139.11 12.2086 139.198 12.6452 139.314 13.1284C139.434 13.6062 139.594 14.0949 139.791 14.5947C139.995 15.0889 140.244 15.5722 140.541 16.0445C140.838 16.5167 141.192 16.9396 141.604 17.313C142.021 17.6865 142.504 17.9885 143.053 18.2191C143.608 18.4553 144.24 18.5843 144.948 18.6063ZM144.635 20.6245C145.332 20.3279 145.953 19.9792 146.497 19.5783C147.04 19.1829 147.518 18.7573 147.93 18.3015C148.342 17.8457 148.696 17.3679 148.993 16.8682C149.289 16.3685 149.539 15.8687 149.742 15.369C149.945 14.8638 150.107 14.3723 150.228 13.8945C150.354 13.4112 150.451 12.9582 150.516 12.5353C150.582 12.107 150.624 11.7198 150.64 11.3738C150.662 11.0279 150.673 10.7396 150.673 10.5089C150.673 10.4595 150.662 10.3057 150.64 10.0476C150.624 9.78951 150.585 9.46551 150.525 9.0756C150.464 8.6857 150.374 8.25186 150.253 7.77409C150.138 7.29632 149.978 6.81032 149.775 6.31607C149.577 5.81633 149.33 5.33033 149.034 4.85805C148.743 4.38577 148.388 3.96566 147.971 3.59772C147.554 3.22429 147.07 2.92225 146.521 2.69161C145.972 2.45547 145.343 2.32641 144.635 2.30445C144.921 2.09577 145.159 1.90631 145.352 1.73607C145.549 1.56583 145.709 1.41755 145.829 1.29125C145.972 1.14846 146.085 1.01941 146.167 0.904087C146.326 0.667948 146.508 0.505946 146.711 0.41808C146.914 0.324722 147.131 0.278044 147.362 0.278044C147.603 0.278044 147.848 0.319231 148.095 0.401605C148.342 0.478488 148.575 0.569099 148.795 0.67344C148.998 0.766797 149.242 0.931546 149.528 1.16768C149.814 1.40382 150.11 1.70586 150.418 2.0738C150.731 2.43625 151.038 2.86734 151.34 3.36708C151.648 3.86132 151.922 4.41597 152.164 5.03103C152.406 5.64609 152.601 6.32156 152.749 7.05744C152.903 7.79331 152.979 8.58136 152.979 9.42158C152.979 10.3002 152.881 11.1459 152.683 11.9587C152.491 12.7715 152.216 13.543 151.859 14.2734C151.502 15.0038 151.071 15.6903 150.566 16.3328C150.066 16.9698 149.506 17.5547 148.885 18.0873C148.27 18.6255 147.603 19.106 146.884 19.5289C146.17 19.9572 145.42 20.3224 144.635 20.6245Z" fill="black"/>
</svg>
