<svg width="209" height="88" viewBox="0 0 209 88" fill="none" xmlns="http://www.w3.org/2000/svg">
<g clip-path="url(#clip0_7_261)">
<path fill-rule="evenodd" clip-rule="evenodd" d="M195.352 0.98526C198.162 0.98526 198.443 2.84423 198.443 2.84423V43.7417C198.443 45.7865 201.535 45.7865 201.816 45.7865C204.908 45.6006 204.908 43.7417 204.908 43.7417V40.9532L208.281 40.2096V43.184C208.281 50.9917 194.508 50.9917 194.508 50.9917C189.73 50.9917 188.043 48.2032 188.043 47.0878V13.6263C188.043 13.4404 188.043 11.9532 184.67 11.9532C181.297 11.9532 181.579 13.8122 181.579 13.8122V29.9853L171.741 32.4019C172.022 29.2417 169.492 29.0558 168.649 29.0558H168.368C166.119 29.0558 164.714 30.9147 164.714 30.9147C161.903 34.2609 154.876 35.934 153.189 36.4917H152.908L145.881 37.9788C143.633 38.3506 141.384 38.5365 141.384 38.5365C134.919 38.7224 131.827 34.2609 131.827 32.7737V26.0814C131.827 22.9212 127.611 23.6647 127.611 23.6647C127.611 23.6647 126.206 23.6647 123.114 25.3378C122.27 26.2673 121.146 26.0814 121.146 26.0814H120.865C119.741 25.7096 118.335 24.4083 118.054 24.2224C116.087 22.5494 114.681 22.3635 114.4 22.3635C112.433 22.3635 111.027 23.4788 111.027 23.4788C109.341 24.7801 109.903 26.0814 111.027 26.825C111.027 26.825 122.833 32.5878 123.114 32.7737C125.924 34.2609 126.206 36.4917 126.206 37.7929C126.206 41.8827 120.865 43.3699 118.897 43.9276C118.335 44.1135 114.119 45.043 109.903 45.9724L108.497 46.3442C104.562 47.0878 100.908 47.8314 100.908 47.8314C102.033 44.4853 98.0975 44.2994 97.8164 44.2994C96.411 44.2994 95.0056 45.4147 95.0056 45.4147C90.7894 49.5045 84.0434 51.3635 83.7623 51.5494C82.3569 52.1071 64.3677 55.6391 64.3677 55.6391C64.9299 52.4788 61.838 52.293 61.2758 52.293C59.5894 52.293 59.0272 52.6647 59.0272 52.8506C58.7461 53.0365 55.0921 57.1263 55.0921 57.3122C53.1245 59.7288 50.5948 58.9853 50.5948 58.9853C50.5948 58.9853 48.6272 58.6135 46.6596 56.7545C44.411 54.8955 42.1623 55.825 41.8813 56.0109C36.8218 58.6135 35.4164 65.1199 35.4164 66.6071V85.5686L23.8921 87.9853V66.2353C23.8921 62.7032 19.9569 63.6327 19.3948 63.6327C18.5515 63.8186 11.5245 66.4212 11.5245 66.4212C8.71368 67.5365 6.74611 67.5365 6.74611 67.5365C0.562331 67.5365 0.28125 63.6327 0.28125 63.6327V24.7801C0.28125 18.8314 8.4326 16.6006 9.27584 16.4147C9.83801 16.2289 25.5785 13.0686 29.2326 12.325C32.8867 11.5814 37.9461 14.5558 37.9461 17.9019V27.5686L25.2975 30.1712V21.8058C25.2975 19.2032 21.6434 19.0173 20.8002 19.2032C19.6758 19.2032 15.1785 20.3186 15.1785 20.3186C10.9623 21.6199 10.4002 25.3378 10.4002 25.3378V58.2417C10.4002 60.4724 13.211 60.4724 13.211 60.4724C25.0164 60.4724 24.4542 48.7609 24.7353 45.9724C24.7353 45.7865 24.7353 44.1135 24.7353 42.0686V41.1391C24.7353 39.466 24.7353 37.793 24.7353 37.4212V37.2353L34.8542 34.8186V49.6904C34.8542 51.7353 36.2596 52.293 36.8218 52.293C42.1623 52.4789 43.5677 40.2096 43.5677 39.2801V33.1455L53.9677 30.9147V45.9724C54.2488 48.3891 58.465 48.3891 59.5894 47.2737C63.5245 43.5558 64.3677 34.075 64.3677 34.075V4.70321L74.7677 1.91475V2.28654V2.47244V2.84423C74.7677 3.03013 74.7677 3.40193 74.7677 3.77372V4.51731C74.7677 7.86346 74.7677 13.8122 74.7677 20.1327V21.6199C74.7677 21.8058 74.7677 22.1776 74.7677 22.3635V23.8506V25.3378C74.7677 30.543 74.7677 35.5622 74.7677 39.2801V40.2096C74.7677 40.3955 74.7677 40.5814 74.7677 40.7673V44.2994V44.4853V44.8571V45.043C74.7677 45.4147 75.611 48.2032 79.8272 48.2032C84.8867 48.2032 84.8867 45.2289 84.8867 44.8571V31.2865C84.8867 28.4981 81.7948 28.8699 81.7948 28.8699V24.966C84.3245 24.2224 86.8542 24.0365 86.8542 24.0365C91.6326 23.8506 92.7569 27.7545 92.7569 28.3122V37.2353C92.7569 40.0237 96.1299 39.466 96.6921 39.466C96.9731 39.466 98.0975 39.0942 99.2218 38.9083L100.065 38.7224C101.47 38.3506 102.876 38.1647 102.876 38.1647C105.968 37.4212 106.811 39.8378 106.811 39.8378C107.935 41.6968 109.622 41.6968 110.184 41.6968C112.995 41.6968 114.4 39.8378 114.681 39.466C115.806 37.793 113.557 36.8635 113.557 36.8635L101.47 30.7288C98.6596 29.4276 98.3785 26.6391 98.3785 26.0814C98.3785 21.434 105.124 19.9468 105.124 19.9468L122.552 16.043V16.6006V16.7865V17.9019C122.552 18.0878 122.552 18.0878 122.552 18.0878C122.552 19.575 125.081 19.7609 125.643 19.7609C126.487 19.7609 127.611 19.3891 128.173 19.0173C132.67 13.6263 142.227 11.7673 143.352 11.5814H143.633V14.9276C140.541 15.1135 140.541 16.7865 140.26 17.3442V17.5301V30.3571C140.26 33.5173 145.038 33.5173 145.6 33.5173C150.66 33.3314 150.941 30.543 150.941 29.7994V10.2801L155.157 9.72244C160.216 9.35064 161.622 13.0686 161.341 14.3699V15.1135V15.2994V19.575C161.341 19.7609 161.341 19.9468 161.341 19.9468V23.293C161.341 25.7096 165.276 25.3378 165.276 25.3378C169.211 25.3378 171.46 15.6712 171.46 13.6263V6.00449L181.86 3.77372V5.81859C181.86 7.67757 185.233 7.49167 185.233 7.49167C188.043 7.49167 188.606 5.6327 190.854 3.21603C192.26 1.17116 194.508 0.98526 195.352 0.98526ZM47.784 14.9276C50.5948 14.9276 53.1245 16.4147 53.1245 18.4596C53.1245 20.3186 50.8758 21.9917 47.784 21.9917C44.9731 21.9917 42.4434 20.5045 42.4434 18.4596C42.4434 16.4147 44.6921 14.9276 47.784 14.9276Z" fill="black"/>
</g>
<defs>
<clipPath id="clip0_7_261">
<rect width="208" height="87" fill="white" transform="translate(0.28125 0.98526)"/>
</clipPath>
</defs>
</svg>
