<svg width="273" height="92" viewBox="0 0 273 92" fill="none" xmlns="http://www.w3.org/2000/svg">
<path d="M211.303 48.9095C212.703 48.8386 216.125 49.2637 223.436 49.5471C231.136 49.8305 232.692 44.3752 232.381 40.9745C224.525 42.5331 222.658 42.8874 215.892 42.8874C208.736 42.8874 200.025 44.7294 199.791 50.3973C199.636 56.0652 207.803 57.3404 212.003 58.4032C213.169 58.6866 213.636 59.5367 212.858 60.1035C211.069 61.4496 206.947 63.15 206.48 66.2673C205.78 70.6599 210.214 74.1315 215.736 73.9898C223.125 73.8481 231.292 71.0142 239.225 62.3707C241.481 59.9618 243.97 55.8526 245.448 54.0106C245.837 53.3729 246.848 53.0187 247.314 53.0895C248.714 53.3729 250.737 54.3648 250.425 55.7109C250.037 57.8364 243.659 64.4961 247.859 68.4636C250.425 70.9433 257.037 72.7145 262.248 69.243C267.148 65.9839 265.437 63.0791 263.492 62.8666C262.092 62.7249 258.281 67.1175 255.092 64.0002C252.526 61.3788 258.67 55.9943 259.915 54.0106C261.703 51.2475 254.781 49.122 251.903 45.6505C250.037 43.3833 254.859 36.3693 248.792 34.5273C246.77 33.8896 240.703 37.2904 242.881 46.9257C240.081 56.4903 218.847 73.2105 216.047 66.4799C215.347 64.8504 217.214 62.0873 222.036 61.1662C230.047 59.6076 229.425 55.1441 225.614 54.6482C219.625 53.9397 217.914 53.9397 210.758 52.3811C207.88 52.2394 207.958 48.8386 211.303 48.9095Z" fill="white"/>
<path d="M95.0233 59.395C93.0788 61.1662 90.8232 63.6459 90.5899 65.6297C89.9677 69.9514 92.3788 73.7772 98.3678 73.6355C104.823 73.5647 106.924 69.2429 117.813 63.2917C120.846 61.5913 124.579 58.7574 126.135 58.5449C126.757 58.5449 127.613 58.6866 127.535 59.7493C126.602 63.7168 125.591 66.3382 126.757 69.668C127.535 72.006 130.957 73.4938 133.446 71.7935C137.569 68.9596 137.646 67.33 143.013 60.8828C143.869 59.8201 147.135 54.9316 148.691 55.5692C149.935 56.136 149.624 57.6947 149.391 58.8991C148.302 64.9212 145.424 74.4149 158.413 72.9271C161.525 72.5728 164.013 70.6599 161.68 68.6762C160.28 67.4717 158.647 68.3219 156.858 67.9677C152.658 67.1175 163.002 49.7597 158.102 46.5006C151.18 41.9664 144.724 49.9722 139.902 55.8526C138.035 58.1906 136.557 57.1279 135.391 53.8689C133.991 50.2556 125.746 52.877 121.002 55.1441C113.457 58.6866 99.5345 70.5891 98.2123 64.6378C97.9789 63.6459 99.8456 61.3079 103.19 60.2452C107.157 58.8991 111.668 57.7655 111.668 55.5692C111.668 53.8689 110.579 52.6644 109.335 52.7353C103.812 53.0187 97.3567 54.3648 89.8899 52.5228C88.1787 52.5228 87.4787 48.6261 92.4566 49.122C93.7788 49.2637 96.7344 49.4054 107.935 49.618C115.79 49.7597 115.946 44.3752 114.935 41.5413C108.401 43.3125 105.057 43.0999 98.1345 43.0999C90.901 43.0999 81.1008 44.021 81.4897 50.3973C81.8786 55.7818 90.1232 57.2696 94.4011 57.6947C95.5678 57.7655 95.9567 58.8282 95.0233 59.395Z" fill="white"/>
<path d="M71.1443 45.6505C71.8443 43.3833 73.2443 42.8874 75.1888 42.5331C77.9889 41.683 82.0334 40.5494 84.4445 40.1243C90.5891 38.7073 92.378 39.0616 93.1558 35.1649C93.7003 32.4727 92.4558 31.1974 92.4558 31.1974C92.4558 31.1974 79 35.0232 76.3555 35.7317C74.0221 36.6527 74.4888 34.3856 74.4888 34.3856C74.4888 34.3856 74.1777 35.8025 75.5777 29.993C80.0111 12.3518 77.3666 7.67577 73.8666 4.98353C64.9997 -1.67621 32.6436 12.1392 9.5432 28.7886C1.84306 34.8815 -2.59035 36.2985 2.38752 41.187C6.82093 45.2254 9.77654 42.1789 9.77654 42.1789C14.0544 39.1324 23.1546 30.5598 29.2213 26.5214C37.777 20.7119 49.6773 12.4226 60.0997 10.1555C68.422 8.24255 70.911 10.4388 69.8221 18.1613C69.1998 24.8211 63.5997 39.6992 63.5997 39.6992C63.5997 39.6992 55.044 43.1708 52.4773 44.0918C50.455 44.8003 48.355 44.3043 48.1217 48.4844C48.0439 52.9478 50.9995 51.2475 53.0218 50.6098C54.5773 50.0431 58.233 48.4844 59.5552 47.9885C60.5663 47.28 61.6552 47.9176 61.1108 49.1929C60.0997 52.1685 58.3107 56.9153 54.8885 63.8585C50.5328 73.2813 42.7549 86.2465 41.7438 89.5056C41.8216 91.631 44.3883 91.9144 47.8105 91.9853C50.9217 91.7727 52.3217 89.789 52.3217 89.789C52.3217 89.789 56.3663 81.8539 62.5886 67.9677C66.9442 57.7655 69.8998 49.4054 71.1443 45.6505Z" fill="white"/>
<path d="M182.212 49.3346C177.39 48.0593 173.112 53.3021 171.867 57.9072C170.779 62.1581 171.323 67.826 175.523 68.6053C178.868 69.1721 182.834 66.4799 183.845 61.5205C184.079 60.1744 184.701 55.9235 184.934 54.8607C186.101 48.1302 186.957 45.1545 186.957 45.1545C191.001 31.0557 200.646 3.63742 203.29 2.0079C206.013 0.378394 213.557 0.0950005 211.224 5.76287C207.568 14.6898 203.29 22.5539 199.479 33.5354C194.968 46.4298 186.179 67.0467 194.035 67.9677C197.69 68.3928 199.168 65.3463 201.346 66.905C204.69 69.3138 201.035 73.6355 194.579 74.2023C185.712 74.4857 185.868 69.7389 181.901 71.7935C169.301 78.3115 161.445 69.1721 163.934 57.7655C166.034 47.9176 174.356 41.0453 183.612 45.2962C183.612 45.2962 186.023 46.3589 185.79 48.201C185.712 49.5471 184.545 49.8305 182.212 49.3346Z" fill="white"/>
<path d="M270.337 43.7376C269.014 44.942 267.459 45.5088 265.67 45.5088C263.803 45.5088 262.248 44.942 261.003 43.7376C259.681 42.5331 259.059 41.1162 259.059 39.4867C259.059 37.8571 259.681 36.4402 261.003 35.2358C262.325 34.0313 263.881 33.4646 265.67 33.4646C267.537 33.4646 269.092 34.0313 270.337 35.2358C271.659 36.4402 272.281 37.8571 272.281 39.4867C272.281 41.1162 271.659 42.5331 270.337 43.7376ZM261.625 35.8025C260.536 36.7944 259.992 38.0697 259.992 39.4867C259.992 40.9036 260.536 42.1789 261.625 43.1708C262.714 44.1626 264.036 44.7294 265.67 44.7294C267.225 44.7294 268.625 44.2335 269.714 43.1708C270.803 42.1789 271.348 40.9036 271.348 39.4867C271.348 38.0697 270.803 36.7944 269.714 35.8025C268.625 34.8107 267.225 34.2439 265.67 34.2439C264.114 34.2439 262.792 34.8107 261.625 35.8025ZM265.514 36.1568C266.448 36.1568 267.07 36.2276 267.537 36.3693C268.314 36.6527 268.625 37.2195 268.625 38.0697C268.625 38.6365 268.392 39.1324 267.925 39.345C267.692 39.4867 267.303 39.6284 266.837 39.6992C267.381 39.7701 267.848 39.9826 268.081 40.3368C268.314 40.6911 268.47 41.0453 268.47 41.3996V41.8955C268.47 42.0372 268.47 42.1789 268.47 42.3914C268.47 42.5331 268.47 42.6748 268.548 42.7457V42.8165H267.381V42.7457V42.6748V42.4623V41.9664C267.381 41.187 267.148 40.6911 266.681 40.4785C266.37 40.3368 265.903 40.266 265.281 40.266H264.27V42.7457H262.948V36.1568H265.514ZM266.914 37.1487C266.603 37.007 266.059 36.8653 265.359 36.8653H264.27V39.2741H265.436C265.981 39.2741 266.37 39.2033 266.681 39.1324C267.148 38.9199 267.459 38.6365 267.459 38.0697C267.381 37.6446 267.225 37.3612 266.914 37.1487Z" fill="white"/>
</svg>
