<svg width="273" height="60" viewBox="0 0 273 60" fill="none" xmlns="http://www.w3.org/2000/svg">
<path d="M30.4617 56.6101C15.9655 56.6101 4.17101 44.8751 4.17101 30.4519C4.17101 16.0288 15.9655 4.2938 30.4617 4.2938C44.958 4.2938 56.7525 15.9771 56.7525 30.4519C56.7525 44.8751 44.958 56.6101 30.4617 56.6101ZM30.4617 0.98526C14.095 0.98526 0.845703 14.1677 0.845703 30.4519C0.845703 46.7361 14.095 59.9186 30.4617 59.9186C46.8285 59.9186 60.0778 46.7361 60.0778 30.4519C60.0778 14.1677 46.8285 0.98526 30.4617 0.98526Z" fill="white"/>
<path d="M40.2816 36.0868C39.8659 36.8105 38.9827 37.069 38.2553 36.6554L34.6182 34.5876V32.8816L36.125 32.0028L39.7101 34.0706C40.4375 34.4842 40.6973 35.363 40.2816 36.0868ZM32.1762 31.4341L30.4616 32.4164L28.7469 31.4341V29.4697L30.4616 28.4875L32.1762 29.4697V31.4341ZM29.0067 20.6297C28.9548 19.8026 29.5783 19.1305 30.4096 19.0788C31.2409 19.0271 31.9164 19.6475 31.9683 20.4746C31.9683 20.5263 31.9683 20.578 31.9683 20.6297V24.7654L30.4616 25.6442L29.0067 24.7654V20.6297ZM26.253 34.5359L22.6159 36.6037C21.9404 37.069 21.0052 36.8622 20.5895 36.1902C20.1219 35.5181 20.3297 34.5876 21.0052 34.174C21.0572 34.1223 21.1091 34.1223 21.213 34.0706L24.8501 32.0028L26.3049 32.8816L26.253 34.5359ZM51.9722 42.342L47.6596 37.3275C47.6077 37.2758 47.5557 37.2241 47.4518 37.1724C47.244 37.069 46.9842 37.069 46.7764 37.1724C46.1009 37.4826 45.3215 37.4826 44.6461 37.069C44.0745 36.7588 43.6589 36.1902 43.555 35.5181C43.2432 33.8638 42.2041 32.4164 40.7492 31.5892L38.8268 30.4519L49.7899 24.145L48.439 21.8187L36.125 28.901L34.6701 28.0739V26.3162L46.9842 19.2339L45.6333 16.9076L34.6701 23.2145V21.0433C34.6701 19.3373 33.9427 17.7347 32.6438 16.6491C31.6566 15.822 31.5527 14.3745 32.384 13.444C32.4879 13.2889 32.6438 13.1338 32.8516 13.0304C33.0595 12.8753 33.1634 12.6685 33.1634 12.41C33.1634 12.3066 33.1634 12.255 33.1114 12.1516L30.9292 5.94805C30.8253 5.68957 30.5655 5.58618 30.3576 5.63788C30.2018 5.68957 30.0978 5.79297 30.0459 5.94805L27.8637 12.1516C27.8637 12.2033 27.8117 12.3066 27.8117 12.41C27.8117 12.6685 27.9156 12.8753 28.1234 13.0304C29.1626 13.7541 29.4224 15.1499 28.695 16.1838C28.5911 16.3389 28.4352 16.494 28.2793 16.6491C26.9804 17.7347 26.253 19.3373 26.253 21.0433V23.2145L15.3418 16.9593L13.9909 19.2856L26.253 26.3162V28.0222L24.7981 28.901L12.4841 21.8187L11.1332 24.145L22.0963 30.4519L20.1739 31.5375C18.7191 32.3647 17.6799 33.8121 17.3681 35.4664C17.2642 36.1385 16.8486 36.7071 16.277 37.0173C15.6016 37.3792 14.8222 37.4309 14.1468 37.1207C13.9389 37.0173 13.6791 37.0173 13.4713 37.1207C13.4193 37.1724 13.3154 37.2241 13.2635 37.2758L8.95095 42.2903C8.79508 42.4971 8.79508 42.7555 9.00291 42.9106C9.10683 43.014 9.2627 43.0657 9.41857 43.014L15.8614 41.825C16.1731 41.7733 16.4329 41.5148 16.4329 41.153C16.4849 40.4292 16.9005 39.7572 17.576 39.3436C18.1475 39.0334 18.8749 38.9817 19.4984 39.1885C21.1091 39.7572 22.8757 39.6021 24.3305 38.7233L26.253 37.6376V50.1997H28.9548V36.0868L30.4096 35.2596L31.8644 36.0868V50.1997H34.5662V37.6893L36.4887 38.775C37.9435 39.6021 39.7101 39.8089 41.3208 39.2402C41.9443 39.0334 42.6717 39.0851 43.2432 39.3953C43.9187 39.7572 44.3343 40.4292 44.3863 41.2047C44.3863 41.4631 44.5422 41.6699 44.75 41.7733C44.802 41.825 44.9059 41.825 44.9578 41.8767L51.4526 43.0657C51.6604 43.1174 51.8163 43.014 51.9202 42.8589C52.128 42.7038 52.128 42.4971 51.9722 42.342Z" fill="white"/>
<path d="M227.643 24.4552H217.719V4.81076H208.73V56.0931H217.719V33.5537H227.643V56.0931H236.84V4.81076H227.643V24.4552Z" fill="white"/>
<path d="M88.654 4.81076L81.8475 24.7654L75.6645 4.81076H66.6758L76.7037 36.2419V56.0931H86.7316V35.208L97.0712 4.81076H88.654Z" fill="white"/>
<path d="M149.394 29.2112L144.406 4.81076H130.273V56.0931H138.379V17.4246L145.289 51.0269H152.823L158.954 16.9076V56.0931H168.411V4.81076H153.706L149.394 29.2112Z" fill="white"/>
<path d="M252.739 35.6215L256.583 12.6685L260.324 35.6215H252.739ZM264.377 4.81076H250.4L240.996 56.0931H249.361L251.336 44.1513H261.727L263.65 56.0931H272.846L264.377 4.81076Z" fill="white"/>
<path d="M184.309 35.6215L188.154 12.6685L191.895 35.6215H184.309ZM181.971 4.81076L172.566 56.0931H180.932L182.958 44.1513H193.35L195.272 56.0931H204.469L195.947 4.81076H181.971Z" fill="white"/>
<path d="M105.905 35.6215L109.75 12.6685L113.49 35.6215H105.905ZM103.566 4.81076L94.1621 56.0931H102.527L104.554 44.1513H114.945L116.868 56.0931H126.064L117.543 4.81076H103.566Z" fill="white"/>
</svg>
