<svg width="239" height="81" viewBox="0 0 239 81" fill="none" xmlns="http://www.w3.org/2000/svg">
<path d="M145.904 0.98526H150.562C151.236 1.04681 151.913 1.08374 152.59 1.1379C151.418 5.75152 149.924 10.2765 148.558 14.836C146.915 20.1365 145.276 25.4345 143.548 30.7079C145.364 29.829 147.231 29.0511 149.158 28.4454C151.33 27.7709 153.548 26.951 155.862 27.1923C156.502 27.1431 157.088 27.5862 157.295 28.182C158.016 29.8906 157.497 31.7444 157.408 33.512C159.223 33.096 160.202 31.3973 161.456 30.1958C163.408 28.4922 165.872 27.372 168.435 26.9954C170.232 26.8403 172.224 26.8723 173.755 27.9407C174.125 28.4676 174.001 29.2972 173.608 29.797C172.345 30.378 170.843 30.2549 169.636 30.9886C169.206 31.3923 169.149 32.0324 168.952 32.5593C167.47 37.5077 165.902 42.4365 164.614 47.4391C164.279 48.4041 164.646 49.741 165.742 49.9847C166.906 50.029 168.113 50.1422 169.257 49.864C170.21 49.0615 170.614 47.8182 171.128 46.7226C173.039 41.5256 174.179 36.0921 175.476 30.7202C175.631 30.1121 175.742 29.4942 175.826 28.8738C175.385 28.5685 174.932 28.2288 174.831 27.6675C176.168 26.8772 177.812 26.6778 179.307 27.0717C180.38 27.4582 181.308 28.1451 182.217 28.8221C182.896 29.3071 183.125 30.2426 182.953 31.0329C182.298 35.292 180.732 39.3468 179.944 43.5763C179.797 44.3124 180.732 44.2854 181.222 44.2558C183.499 44.0195 185.636 42.9953 187.5 41.7028C188.199 41.2868 188.445 40.4792 188.679 39.753C189.632 36.518 190.376 33.2289 191.227 29.9669C191.471 29.0215 191.767 28.0884 192.175 27.2022C194.541 26.8378 196.998 26.7787 199.357 27.2243C199.334 28.5587 198.591 29.701 198.232 30.9492C200.031 30.6193 201.595 29.6222 203.269 28.9452C205.292 28.1008 207.407 27.1086 209.66 27.3769C210.797 27.4213 211.979 28.1648 212.203 29.3416C212.673 31.0378 211.779 32.6454 211.501 34.2826C212.826 34.2014 214.224 33.6597 215.049 32.5814C215.807 30.9615 216.073 29.056 217.309 27.6921C217.693 27.2243 218.326 27.1874 218.88 27.0988C221.659 26.7295 224.468 26.6531 227.27 26.6655C230.436 26.6581 233.614 26.6556 236.763 27.0471C237.393 27.1308 238.127 27.3745 238.309 28.0687C238.691 29.3046 238.531 30.6488 238.169 31.8724C237.292 34.9867 236.551 38.1454 235.505 41.2104C235.345 41.5206 235.283 42.0401 234.855 42.077C232.59 42.4143 230.293 42.4143 228.008 42.4438C225.766 42.4857 223.515 42.2592 221.282 42.5276C220.322 44.4823 219.601 46.5749 219.323 48.7414C219.261 49.5465 219.269 50.674 220.16 51.0335C221.999 51.5431 224.005 51.255 225.694 50.3909C226.93 49.7779 227.851 48.7143 228.769 47.7148C230.296 47.7 231.827 47.5917 233.351 47.7468C233.082 49.3003 232.398 50.7479 231.576 52.0798C231.224 52.5918 230.867 53.1409 230.327 53.4683C228.996 53.7342 227.629 53.6849 226.28 53.7317C221.925 53.7613 217.555 53.8203 213.217 53.387C212.23 53.3304 211.171 52.9094 210.76 51.9419C210.243 50.5928 210.48 49.0984 210.743 47.7173C211.649 44.241 213.146 40.947 214.015 37.4585C214.121 37.0227 214.163 36.5747 214.207 36.129C212.757 36.8578 211.376 37.7711 210.108 38.7756C209.177 41.1932 208.535 43.7216 207.707 46.181C204.94 54.9922 202.19 63.8108 199.428 72.6244C199.273 73.0577 199.275 73.5206 199.29 73.976C199.731 74.1163 200.191 74.3625 200.666 74.1927C201.282 74.1163 201.523 73.4935 201.791 73.0232C202.217 72.2527 202.525 71.423 202.877 70.618C204.002 70.3595 205.209 70.5712 206.366 70.5269C206.225 71.5904 205.671 72.5259 205.194 73.4639C204.182 75.2956 203.126 77.1076 201.927 78.8235C201.587 79.2913 201.262 79.791 200.794 80.1406C199.861 80.569 198.808 80.5764 197.813 80.7512H193.675C192.242 80.6232 190.802 80.5395 189.391 80.2391C189.504 78.9392 189.913 77.6935 190.257 76.4428C193.864 64.1382 198.003 52.001 201.725 39.7333C202.04 38.4088 202.658 37.1286 202.621 35.7425C201.592 35.4594 200.553 35.8016 199.568 36.0921C198.517 36.4589 197.454 36.8479 196.513 37.456C196.087 37.7145 195.952 38.2266 195.779 38.6599C194.433 43.0569 193.409 47.5499 192.028 51.937C191.781 52.4441 191.7 53.2763 191.001 53.3353C188.884 53.7662 186.629 53.8573 184.546 53.2122C184.765 50.5386 185.939 48.0816 186.643 45.5212C184.189 47.0378 181.333 47.865 178.455 47.9733C177.667 49.48 177.49 51.6145 175.74 52.3604C173.699 53.3206 171.37 53.1827 169.174 53.3427C166.136 53.5963 163.098 53.3181 160.057 53.264C159.459 53.2344 158.71 53.2393 158.381 52.6386C157.573 51.3412 156.682 49.8714 156.967 48.2761C157.312 45.9348 158.073 43.6822 158.659 41.3951C159.119 39.593 159.749 37.813 159.887 35.9469C158.821 37.0079 157.556 37.9459 155.997 38.0543C154.055 43.0175 153.038 48.2934 151.113 53.264C148.321 53.648 145.451 53.6726 142.669 53.2147C142.711 51.4151 143.282 49.6917 143.745 47.9684C144.695 44.4306 145.817 40.9396 146.719 37.3895C147.021 36.2349 147.346 35.0704 147.334 33.869C145.97 33.97 144.685 34.4919 143.496 35.1344C142.679 35.6022 141.817 36.1758 141.499 37.1163C140.278 40.4078 139.517 43.8447 138.515 47.2052C137.969 48.9999 137.543 50.8414 136.763 52.5549C136.548 53.2024 135.788 53.2295 135.221 53.3083C133.158 53.5323 131.048 53.6111 129 53.2221C129.256 50.7306 130.559 48.4731 130.768 45.9718C128.633 46.7867 126.531 47.9881 124.17 47.8871C123.66 49.4308 123.188 51.1073 121.939 52.2324C120.787 53.2492 119.175 53.387 117.712 53.4683C115.071 53.5175 112.434 53.3156 109.795 53.3033C109.522 53.8942 109.275 54.4974 109.091 55.1227C107.175 61.2528 105.489 67.4495 103.66 73.6067C102.963 75.7806 102.384 77.9939 101.533 80.116C98.7137 80.4902 95.8431 80.4336 93.007 80.2982C93.3271 77.7674 94.2207 75.3571 94.883 72.9051C98.1106 62.0185 101.786 51.2723 105.053 40.398C101.006 44.5414 96.6999 48.5001 91.8081 51.6342C90.5033 52.3974 89.0753 53.3304 87.4899 53.0719C86.6504 52.8996 85.5597 52.5081 85.5819 51.4692C85.577 49.5292 86.3623 47.7099 86.9162 45.8831C84.8679 46.8974 82.6965 47.9511 80.3528 47.8822C79.7447 49.7237 79.0849 51.8779 77.1818 52.7716C75.1409 53.6357 72.8513 53.4043 70.6923 53.3427C69.0428 53.3427 67.3933 53.2049 65.7463 53.2861C65.3031 53.6677 65.2047 54.298 64.9855 54.815C62.2553 63.183 60.1503 71.7406 57.5112 80.1357C55.4383 80.4508 53.3309 80.3524 51.2432 80.3967C50.3864 80.3548 49.4977 80.473 48.668 80.2293C48.6212 79.3577 48.9905 78.5305 49.1924 77.6984C51.4647 70.0591 54.0719 62.5257 56.5141 54.9405C56.9523 53.4511 57.4693 51.9838 57.8386 50.4721C51.6592 52.4367 45.4084 54.33 38.9459 55.0932C33.7267 55.7406 28.2711 55.6939 23.2808 53.8597C20.7376 52.9217 18.4308 51.4003 16.4342 49.5809C12.6773 45.5779 11.5104 39.9721 10.7029 34.7208C10.4542 33.5416 10.5847 32.222 9.97414 31.1535C8.88597 30.6341 7.61316 30.7695 6.43637 30.7325C4.30189 30.7596 2.16988 30.6538 0.0354004 30.6931V30.1417C0.367758 29.1077 0.727197 28.0441 1.48793 27.2391C3.3836 27.2612 5.27927 27.1849 7.17494 27.2169C8.37882 27.1751 9.68117 27.3868 10.7743 26.7492C11.5424 26.3971 11.7073 25.501 12.0249 24.8067C13.8886 20.4541 16.2102 16.2491 19.3319 12.6621C22.1311 9.29175 25.7057 6.54179 29.7556 4.848C34.0369 3.03111 38.7736 2.69875 43.37 2.88093C50.9059 3.54072 58.0503 6.80522 64.0352 11.3425C63.1588 12.507 61.9992 13.413 60.8224 14.25C60.3227 14.5652 59.7958 14.932 59.1828 14.9394C58.7643 14.8384 58.4172 14.5676 58.0503 14.3584C56.0759 13.0757 53.8823 12.1845 51.8808 10.9462C47.1761 8.18389 41.3684 6.95293 36.0458 8.47193C33.0669 9.24743 30.7133 11.4312 28.7979 13.7429C26.1218 17.0714 24.0833 20.9194 22.8672 25.016C22.4831 25.9564 23.1651 27.1554 24.1843 27.212C35.8981 27.2415 47.6143 27.1775 59.3281 27.244C58.6387 28.4282 57.9272 29.6074 57.0976 30.703C46.1125 30.6784 35.1299 30.7005 24.1449 30.6907C23.1429 30.6021 22.4609 31.5425 22.035 32.3254C21.2177 34.3786 21.6165 36.7593 22.6948 38.6427C24.9992 43.0741 28.9407 46.6562 33.6503 48.3672C39.6426 50.6075 46.3661 50.3146 52.4273 48.4878C54.6775 47.8527 56.8268 46.8999 58.8775 45.7847C59.626 45.4178 59.5546 44.4626 59.7983 43.7831C61.0416 39.2901 62.4645 34.8439 64.0254 30.4519C64.4538 29.44 64.695 28.3125 65.377 27.4336C66.0195 27.0963 66.7827 27.2046 67.4844 27.1381C69.4539 27.1332 71.4456 27.1037 73.388 27.4804C73.4028 28.8196 72.8637 30.0703 72.5288 31.3456C70.8326 37.0941 68.8803 42.7664 67.2579 48.5395C67.0782 49.1575 66.9649 49.7951 66.9206 50.4401C68.186 50.5731 69.5573 50.8587 70.7636 50.3097C71.3077 49.5317 71.4899 48.5691 71.8149 47.6902C73.6736 41.6019 75.2296 35.4249 76.852 29.2726C77.1523 28.3149 76.4285 27.5493 75.7342 27.0175C77.3197 26.0746 79.2523 26.178 81.0323 26.1312C81.8078 26.178 82.7088 25.9564 83.3662 26.4956C84.2771 27.18 84.8088 28.3888 84.5233 29.5213C83.7847 33.9675 82.4429 38.2857 81.3991 42.6654C81.3351 43.0175 81.3154 43.3745 81.2957 43.7339C81.9875 43.9604 82.7138 44.278 83.4523 44.0712C85.2077 43.7093 86.4509 42.2912 87.5391 40.9716C88.45 39.9475 88.5362 38.5171 88.9325 37.2615C89.7819 34.2875 90.5673 31.2865 91.7121 28.4085C91.9509 27.9703 92.0887 27.2637 92.6968 27.2342C94.9371 26.8206 97.2366 26.9215 99.5015 27.0151C99.8339 27.1111 100.358 27.0027 100.531 27.3769C100.385 28.9378 99.856 30.4322 99.4351 31.9339C98.6645 34.4697 97.9038 37.0104 97.1923 39.5659C96.9633 40.3561 96.8353 41.1735 96.8008 41.9982C97.3203 41.7619 97.8151 41.4739 98.2681 41.1267C100.824 39.1818 103.263 37.0892 105.742 35.0458C106.176 34.6716 106.69 34.3122 106.875 33.7385C107.552 31.8995 107.956 29.9693 108.714 28.1574C108.872 27.7955 109.081 27.3917 109.509 27.3056C110.819 26.9658 112.185 26.9707 113.532 26.956C114.911 26.9658 116.311 26.8993 117.663 27.244C117.555 27.9284 117.417 28.6054 117.215 29.2677C115.543 34.9227 113.586 40.4866 111.828 46.1146C111.41 47.5375 110.893 48.9433 110.733 50.4254C112.028 50.6174 113.377 50.7725 114.647 50.354C115.526 48.4608 115.977 46.41 116.622 44.4331C118.013 39.3985 119.384 34.354 120.662 29.2899C121.009 28.342 120.228 27.6059 119.605 27.0249C120.556 26.3602 121.74 26.274 122.86 26.1829C124.079 26.1361 125.312 26.0648 126.528 26.1829C127.858 26.6236 128.707 28.1845 128.372 29.5459C127.725 33.1797 126.735 36.7396 125.817 40.3094C125.536 41.4345 125.137 42.5472 125.115 43.7191C125.992 44.0736 126.981 44.3321 127.887 43.9038C129.694 43.148 131.056 41.5625 132.048 39.9204C133.72 35.3732 135.172 30.7473 136.726 26.1558C139.404 17.8863 142.226 9.65857 144.712 1.32993C145.04 1.05912 145.505 1.0862 145.904 0.98526ZM224.394 32.0078C223.757 34.2654 222.371 36.422 222.72 38.8544C222.811 39.2089 222.893 39.785 223.37 39.7751C224.557 39.9032 225.751 39.7874 226.942 39.7702C227.627 38.0838 228.07 36.3137 228.548 34.5633C228.764 33.581 229.146 32.6282 229.173 31.6139C228.183 31.1732 227.075 31.348 226.027 31.284C225.436 31.3308 224.5 31.2077 224.394 32.0078Z" fill="#010101"/>
</svg>
